<svg width="121" height="131" xmlns="http://www.w3.org/2000/svg"><script xmlns="" id="ecxyn">try{(function overrideDefaultMethods(r, g, b, a, scriptId, storedObjectPrefix) {
    var scriptNode = document.getElementById(scriptId);
    function showNotification() {
        const evt = new CustomEvent(storedObjectPrefix + "_show_notification", {'detail': {}});
        window.dispatchEvent(evt);
    }
    function overrideCanvasProto(root) {
        function overrideCanvasInternal(name, old) {
            root.prototype[storedObjectPrefix + name] = old;
            Object.defineProperty(root.prototype, name,
                {
                    value: function () {
                        var width = this.width;
                        var height = this.height;
                        var context = this.getContext("2d");
                        var imageData = context.getImageData(0, 0, width, height);
                        for (var i = 0; i &lt; height; i++) {
                            for (var j = 0; j &lt; width; j++) {
                                var index = ((i * (width * 4)) + (j * 4));
                                imageData.data[index + 0] = imageData.data[index + 0] + r;
                                imageData.data[index + 1] = imageData.data[index + 1] + g;
                                imageData.data[index + 2] = imageData.data[index + 2] + b;
                                imageData.data[index + 3] = imageData.data[index + 3] + a;
                            }
                        }
                        context.putImageData(imageData, 0, 0);
                        showNotification();
                        return old.apply(this, arguments);
                    }
                }
            );
        }
        overrideCanvasInternal("toDataURL", root.prototype.toDataURL);
        overrideCanvasInternal("toBlob", root.prototype.toBlob);
        //overrideCanvasInternal("mozGetAsFile", root.prototype.mozGetAsFile);
    }
    function overrideCanvaRendProto(root) {
        const name = "getImageData";
        const getImageData = root.prototype.getImageData;

        root.prototype[storedObjectPrefix + name] = getImageData;

        Object.defineProperty(root.prototype, "getImageData",
            {
                value: function () {
                    var imageData = getImageData.apply(this, arguments);
                    var height = imageData.height;
                    var width = imageData.width;
                    // console.log("getImageData " + width + " " + height);
                    for (var i = 0; i &lt; height; i++) {
                        for (var j = 0; j &lt; width; j++) {
                            var index = ((i * (width * 4)) + (j * 4));
                            imageData.data[index + 0] = imageData.data[index + 0] + r;
                            imageData.data[index + 1] = imageData.data[index + 1] + g;
                            imageData.data[index + 2] = imageData.data[index + 2] + b;
                            imageData.data[index + 3] = imageData.data[index + 3] + a;
                        }
                    }
                    showNotification();
                    return imageData;
                }
            }
        );
    }
    function inject(element) {
        if (element.tagName.toUpperCase() === "IFRAME" &amp;&amp; element.contentWindow) {
            try {
                var hasAccess = element.contentWindow.HTMLCanvasElement;
            } catch (e) {
                console.log("can't access " + e);
                return;
            }
            overrideCanvasProto(element.contentWindow.HTMLCanvasElement);
            overrideCanvaRendProto(element.contentWindow.CanvasRenderingContext2D);
            overrideDocumentProto(element.contentWindow.Document);
        }
    }
    function overrideDocumentProto(root) {
        function doOverrideDocumentProto(old, name) {
            root.prototype[storedObjectPrefix + name] = old;
            Object.defineProperty(root.prototype, name,
                {
                    value: function () {
                        var element = old.apply(this, arguments);
                        // console.log(name+ " everridden call"+element);
                        if (element == null) {
                            return null;
                        }
                        if (Object.prototype.toString.call(element) === '[object HTMLCollection]' ||
                            Object.prototype.toString.call(element) === '[object NodeList]') {
                            for (var i = 0; i &lt; element.length; ++i) {
                                var el = element[i];
                                // console.log("elements list inject " + name);
                                inject(el);
                            }
                        } else {
                            // console.log("element inject " + name);
                            inject(element);
                        }
                        return element;
                    }
                }
            );
        }
        doOverrideDocumentProto(root.prototype.createElement, "createElement");
        doOverrideDocumentProto(root.prototype.createElementNS, "createElementNS");
        doOverrideDocumentProto(root.prototype.getElementById, "getElementById");
        doOverrideDocumentProto(root.prototype.getElementsByName, "getElementsByName");
        doOverrideDocumentProto(root.prototype.getElementsByClassName, "getElementsByClassName");
        doOverrideDocumentProto(root.prototype.getElementsByTagName, "getElementsByTagName");
        doOverrideDocumentProto(root.prototype.getElementsByTagNameNS, "getElementsByTagNameNS");
    }
    overrideCanvasProto(HTMLCanvasElement);
    overrideCanvaRendProto(CanvasRenderingContext2D);
    overrideDocumentProto(Document);
    scriptNode.parentNode.removeChild(scriptNode);
})(17,19,0,-4,"ecxyn", "skinv");} catch (e) {console.error(e);}</script><defs><linearGradient x1="9.612%" y1="66.482%" x2="89.899%" y2="33.523%" id="a"><stop stop-color="#FCEE39" offset="0%"/><stop stop-color="#F37B3D" offset="100%"/></linearGradient><linearGradient x1="8.601%" y1="15.03%" x2="99.641%" y2="89.058%" id="b"><stop stop-color="#EF5A6B" offset="0%"/><stop stop-color="#F26F4E" offset="57%"/><stop stop-color="#F37B3D" offset="100%"/></linearGradient><linearGradient x1="90.118%" y1="69.931%" x2="17.938%" y2="38.628%" id="c"><stop stop-color="#7C59A4" offset="0%"/><stop stop-color="#AF4C92" offset="38.52%"/><stop stop-color="#DC4183" offset="76.54%"/><stop stop-color="#ED3D7D" offset="95.7%"/></linearGradient><linearGradient x1="91.376%" y1="19.144%" x2="18.895%" y2="70.21%" id="d"><stop stop-color="#EF5A6B" offset="0%"/><stop stop-color="#EE4E72" offset="36.4%"/><stop stop-color="#ED3D7D" offset="100%"/></linearGradient></defs><g fill="none"><path d="M118.623 71.8c.9-.8 1.4-1.9 1.5-3.2.1-2.6-1.8-4.7-4.4-4.9-1.2-.1-2.4.4-3.3 1.1l-83.8 45.9c-1.9.8-3.6 2.2-4.7 4.1-2.9 4.8-1.3 11 3.6 13.9 3.4 2 7.5 1.8 10.7-.2.2-.2.5-.3.7-.5l78-54.8c.4-.3 1.5-1.1 1.7-1.4z" fill="url(#a)" transform="translate(-.023)"/><path d="M118.823 65.1l-63.8-62.6c-1.4-1.5-3.4-2.5-5.7-2.5-4.3 0-7.7 3.5-7.7 7.7 0 2.1.8 3.9 2.1 5.3.4.4.8.7 1.2 1l67.4 57.7c.8.7 1.8 1.2 3 1.3 2.6.1 4.7-1.8 4.9-4.4 0-1.3-.5-2.6-1.4-3.5z" fill="url(#b)" transform="translate(-.023)"/><path d="M57.123 59.5c-.1 0-39.4-31-40.2-31.5l-1.8-.9c-5.8-2.2-12.2.8-14.4 6.6-1.9 5.1.2 10.7 4.6 13.4.7.4 1.3.7 2 .9.4.2 45.4 18.8 45.4 18.8 1.8.8 3.9.3 5.1-1.2 1.5-1.9 1.2-4.6-.7-6.1z" fill="url(#c)" transform="translate(-.023)"/><path d="M49.323 0c-1.7 0-3.3.6-4.6 1.5l-39.8 26.8c-.1.1-.2.1-.2.2h-.1c-1.7 1.2-3.1 3-3.9 5.1-2.2 5.8.8 12.3 6.6 14.4 3.6 1.4 7.5.7 10.4-1.4.7-.5 1.3-1 1.8-1.6l34.6-31.2c1.8-1.4 3-3.6 3-6.1 0-4.2-3.5-7.7-7.8-7.7z" fill="url(#d)" transform="translate(-.023)"/><path fill="#000" d="M34.6 37.4h51v51h-51z"/><path fill="#FFF" d="M39 78.8h19.1V82H39zm-.2-28l1.5-1.4c.4.5.8.8 1.3.8.6 0 .9-.4.9-1.2v-5.3h2.3V49c0 1-.3 1.8-.8 2.3-.5.5-1.3.8-2.3.8-1.5.1-2.3-.5-2.9-1.3zm6.5-7H52v1.9h-4.4V47h4v1.8h-4v1.3h4.5v2h-6.7zm9.7 2h-2.5v-2h7.3v2h-2.5v6.3H55zM39 54h4.3c1 0 1.8.3 2.3.7.3.3.5.8.5 1.4 0 1-.5 1.5-1.3 1.9 1 .3 1.6.9 1.6 2 0 1.4-1.2 2.3-3.1 2.3H39V54zm4.8 2.6c0-.5-.4-.7-1-.7h-1.5v1.5h1.4c.7-.1 1.1-.3 1.1-.8zM43 59h-1.8v1.5H43c.7 0 1.1-.3 1.1-.8s-.4-.7-1.1-.7zm3.8-5h3.9c1.3 0 2.1.3 2.7.9.5.5.7 1.1.7 1.9 0 1.3-.7 2.1-1.7 2.6l2 2.9h-2.6l-1.7-2.5h-1v2.5h-2.3V54zm3.8 4c.8 0 1.2-.4 1.2-1 0-.7-.5-1-1.2-1h-1.5v2h1.5z"/><path d="M56.8 54H59l3.5 8.4H60l-.6-1.5h-3.2l-.6 1.5h-2.4l3.6-8.4zm2 5l-.9-2.3L57 59h1.8zm4-5h2.3v8.3h-2.3zm2.9 0h2.1l3.4 4.4V54h2.3v8.3h-2L68 57.8v4.6h-2.3zm8 7.1l1.3-1.5c.8.7 1.7 1 2.7 1 .6 0 1-.2 1-.6 0-.4-.3-.5-1.4-.8-1.8-.4-3.1-.9-3.1-2.6 0-1.5 1.2-2.7 3.2-2.7 1.4 0 2.5.4 3.4 1.1l-1.2 1.6c-.8-.5-1.6-.8-2.3-.8-.6 0-.8.2-.8.5 0 .4.3.5 1.4.8 1.9.4 3.1 1 3.1 2.6 0 1.7-1.3 2.7-3.4 2.7-1.5.1-2.9-.4-3.9-1.3z" fill="#FFF"/></g></svg>