<svg width="243" height="110" xmlns="http://www.w3.org/2000/svg"><g fill-rule="nonzero" fill="none"><path d="M66.99 46.192a4.127 4.127 0 0 1 4.124 4.132 4.128 4.128 0 0 1-4.124 4.131 4.128 4.128 0 0 1-4.124-4.131 4.127 4.127 0 0 1 4.124-4.132zM80.05 44.47a5.847 5.847 0 0 1 5.842 5.853c0 3.233-2.615 5.854-5.842 5.854-3.227 0-5.842-2.621-5.842-5.854a5.847 5.847 0 0 1 5.842-5.852zM85.548 57.554a4.472 4.472 0 0 1 4.468 4.477 4.473 4.473 0 0 1-4.468 4.477 4.474 4.474 0 0 1-4.47-4.477 4.473 4.473 0 0 1 4.47-4.477zM85.204 36.206a3.44 3.44 0 0 1 3.436 3.443 3.44 3.44 0 0 1-3.436 3.443 3.439 3.439 0 0 1-3.436-3.443 3.439 3.439 0 0 1 3.436-3.443zM69.74 26.909c4.934 0 8.935 4.008 8.935 8.952s-4.001 8.953-8.936 8.953-8.936-4.009-8.936-8.953c0-4.944 4.001-8.952 8.936-8.952zM56.336 37.24a3.096 3.096 0 0 1 3.094 3.098c0 1.71-1.385 3.099-3.094 3.099a3.096 3.096 0 0 1-3.092-3.1 3.095 3.095 0 0 1 3.092-3.098zM8.17 35.21a3.097 3.097 0 0 1 3.093 3.1 3.097 3.097 0 0 1-3.094 3.1 3.096 3.096 0 0 1-3.093-3.1c0-1.712 1.384-3.1 3.093-3.1z" fill="#D7D8D9"/><path d="M96.888 61.34c3.608 0 6.532 2.93 6.532 6.543 0 3.614-2.924 6.543-6.532 6.543-3.605 0-6.53-2.929-6.53-6.543 0-3.613 2.925-6.543 6.53-6.543z" fill="#B7D134"/><path d="M69.197 13.189a5.574 5.574 0 0 1 5.568 5.578 5.574 5.574 0 0 1-5.568 5.579 5.574 5.574 0 0 1-5.568-5.579 5.573 5.573 0 0 1 5.568-5.578z" fill="#F26D58"/><path d="M50.15 15.942c4.935 0 8.934 4.008 8.934 8.953 0 4.943-4 8.952-8.934 8.952-4.934 0-8.935-4.009-8.935-8.952 0-4.945 4-8.953 8.935-8.953zM47.057 38.616a2.408 2.408 0 0 1 2.405 2.41 2.408 2.408 0 0 1-2.405 2.41 2.408 2.408 0 0 1-2.406-2.41c0-1.33 1.077-2.41 2.406-2.41zM7.903 68.736c4.366 0 7.906 3.545 7.906 7.92 0 4.373-3.54 7.919-7.906 7.919-4.365 0-7.903-3.546-7.903-7.92 0-4.374 3.538-7.92 7.903-7.92z" fill="#D7D8D9"/><path d="M24.246 8.56c5.56 0 10.066 4.515 10.066 10.085 0 5.57-4.506 10.087-10.066 10.087-5.56 0-10.067-4.517-10.067-10.087 0-5.57 4.508-10.086 10.067-10.086z" fill="#8CCECD"/><path d="M32.549 49.83c1.441 0 2.61 1.171 2.61 2.616a2.613 2.613 0 0 1-2.61 2.615 2.613 2.613 0 0 1-2.61-2.615 2.613 2.613 0 0 1 2.61-2.615z" fill="#D7D8D9"/><path d="M14.518 43.091c6.487 0 11.744 5.267 11.744 11.766s-5.257 11.768-11.744 11.768c-6.486 0-11.743-5.269-11.743-11.768 0-6.499 5.257-11.766 11.743-11.766z" fill="#FCE115"/><path d="M86.156 78.56c3.984 0 7.215 3.238 7.215 7.23 0 3.994-3.23 7.232-7.215 7.232-3.987 0-7.218-3.238-7.218-7.231s3.23-7.231 7.218-7.231z" fill="#D7D8D9"/><path d="M70.475 87.566c4.745 0 8.593 3.854 8.593 8.607 0 4.754-3.848 8.608-8.593 8.608-4.744 0-8.592-3.854-8.592-8.608 0-4.753 3.848-8.607 8.592-8.607z" fill="#F47821"/><path d="M36.331 75.183c5.353 0 9.693 4.348 9.693 9.712 0 5.362-4.34 9.71-9.693 9.71-5.354 0-9.693-4.348-9.693-9.71 0-5.364 4.34-9.712 9.693-9.712zM48.154 90.607a3.732 3.732 0 0 1 3.729 3.735 3.732 3.732 0 0 1-3.729 3.736 3.732 3.732 0 0 1-3.728-3.736 3.732 3.732 0 0 1 3.728-3.735zM84.628 69.381a3.514 3.514 0 0 1 3.513 3.518 3.514 3.514 0 0 1-3.513 3.52 3.515 3.515 0 0 1-3.511-3.52 3.515 3.515 0 0 1 3.511-3.518zM74.327 74.542a4.923 4.923 0 0 1 4.917 4.927 4.922 4.922 0 0 1-4.917 4.925 4.92 4.92 0 0 1-4.915-4.925 4.921 4.921 0 0 1 4.915-4.927zM59.34 68.208a2.578 2.578 0 0 1 2.576 2.582 2.578 2.578 0 0 1-2.575 2.58 2.579 2.579 0 0 1-2.577-2.58 2.58 2.58 0 0 1 2.577-2.582zM57.937 75.246c4.268 0 7.726 3.466 7.726 7.74 0 4.276-3.458 7.741-7.726 7.741s-7.727-3.465-7.727-7.74 3.459-7.741 7.727-7.741zM46.229 71.258c1.81 0 3.278 1.47 3.278 3.284a3.283 3.283 0 0 1-3.278 3.285 3.283 3.283 0 0 1-3.278-3.285 3.281 3.281 0 0 1 3.278-3.284zM37.8 67.738c1.553 0 2.81 1.261 2.81 2.816a2.813 2.813 0 0 1-2.81 2.816 2.815 2.815 0 0 1-2.81-2.816 2.814 2.814 0 0 1 2.81-2.816zM31.947 58.355a3.046 3.046 0 0 1 3.044 3.049 3.047 3.047 0 0 1-3.044 3.051 3.048 3.048 0 0 1-3.045-3.051 3.047 3.047 0 0 1 3.045-3.05zM23.75 68.736a5.155 5.155 0 0 1 5.152 5.16 5.157 5.157 0 0 1-5.151 5.162 5.157 5.157 0 0 1-5.152-5.162c0-2.85 2.307-5.16 5.152-5.16zM99.683 51.093a2.578 2.578 0 0 1 2.575 2.581 2.578 2.578 0 0 1-2.575 2.581 2.578 2.578 0 0 1-2.576-2.58 2.579 2.579 0 0 1 2.576-2.582zM39.331.625a2.578 2.578 0 0 1 2.576 2.583 2.578 2.578 0 0 1-2.576 2.58 2.579 2.579 0 0 1-2.576-2.58A2.58 2.58 0 0 1 39.331.625zM88.73 104.78a2.578 2.578 0 0 1 2.576 2.582 2.578 2.578 0 0 1-2.576 2.581 2.578 2.578 0 0 1-2.576-2.58 2.578 2.578 0 0 1 2.576-2.582z" fill="#D7D8D9"/><path d="M51.71 84.196c15.936 0 28.855-12.944 28.855-28.911 0-15.968-12.92-28.912-28.855-28.912-15.937 0-28.856 12.944-28.856 28.912 0 15.967 12.92 28.911 28.856 28.911z" fill="#FFF"/><path fill="#4E4E50" d="M132.84 46.176v1.581h-7.093V34.958h1.782v11.218zM138.335 34.958h1.782v12.799h-1.782zM156.196 34.958v12.8h-3.12l-4.418-11.236h-.297v11.235h-1.782V34.958h3.174l4.327 11.237h.334V34.958zM163.734 46.948c-.755-.676-1.132-1.745-1.132-3.209v-8.78h1.782v8.818c0 1.736.922 2.603 2.766 2.603.966 0 1.687-.21 2.163-.632.477-.42.715-1.078.715-1.971v-8.819h1.764v8.781c0 1.464-.38 2.533-1.142 3.209-.76.676-1.915 1.014-3.462 1.014-1.548 0-2.698-.338-3.454-1.014zM181.113 41.526l-3.862-6.568h1.986l2.971 5.228 3.007-5.228h1.876l-3.863 6.493 3.863 6.306h-1.987l-2.951-5.041-3.009 5.041h-1.893zM130.221 63.905h-.965l-2.265 7.497h5.477l-2.247-7.497zm2.489 8.37h-5.96l-1.114 3.758h-.91l3.825-12.966h2.358l3.824 12.966h-.91l-1.113-3.758zM141.222 75.271c-.712-.62-1.067-1.612-1.067-2.976v-9.228h.946v9.245c0 2.035 1.115 3.052 3.343 3.052 1.188 0 2.07-.242 2.646-.726.574-.484.863-1.258.863-2.326v-9.245h.91v9.228c0 1.364-.362 2.356-1.087 2.976-.724.62-1.822.93-3.296.93-1.46 0-2.547-.31-3.258-.93zM155.658 75.922l-.668-.075.091-.855c1.71.223 2.996.335 3.862.335 2.055 0 3.083-1 3.083-2.996 0-.545-.08-.97-.241-1.274-.161-.303-.462-.551-.9-.743-.44-.193-1.093-.363-1.96-.512-1.039-.187-1.84-.404-2.404-.651-.563-.248-.974-.602-1.234-1.061-.261-.458-.39-1.091-.39-1.897 0-1.116.33-1.95.992-2.502.662-.552 1.687-.828 3.074-.828 1.014 0 2.264.106 3.75.316l-.093.856c-1.757-.211-2.97-.317-3.639-.317-2.079 0-3.12.807-3.12 2.42 0 .644.078 1.121.232 1.431.156.31.462.559.92.745.458.185 1.213.384 2.265.595.94.174 1.671.38 2.191.623.52.242.9.574 1.142.996.242.42.362.991.362 1.711 0 1.34-.322 2.33-.966 2.976-.643.645-1.652.967-3.026.967-.83 0-1.937-.086-3.323-.26zM172.423 63.924h-4.195v-.857h9.282v.857h-4.159v12.11h-.928zM187.907 69.95c1.98 0 2.971-1.004 2.971-3.013 0-1.029-.245-1.79-.734-2.28-.489-.489-1.241-.733-2.256-.733h-3.75v6.027h3.769zm-4.697-6.883h4.678c1.337 0 2.33.307 2.98.921.65.614.976 1.573.976 2.874 0 2.134-.861 3.393-2.582 3.777l2.767 5.394h-1.04l-2.692-5.227h-4.159v5.227h-.928V63.067zM202.983 63.905h-.965l-2.265 7.497h5.477l-2.247-7.497zm2.488 8.37h-5.96l-1.114 3.758h-.91l3.825-12.966h2.358l3.825 12.966h-.91l-1.114-3.758zM220.362 75.178v.855h-7.019V63.067h.929v12.111zM226.08 63.067h1v12.966h-1zM238.333 63.905h-.965l-2.265 7.497h5.477l-2.247-7.497zm2.488 8.37h-5.96l-1.113 3.758h-.91l3.825-12.966h2.358l3.824 12.966h-.91l-1.114-3.758z"/></g></svg>